<mxfile host="app.diagrams.net" modified="2024-07-13T00:07:07.404Z" agent="Mozilla/5.0 (Macintosh; Intel Mac OS X 10_15_7) AppleWebKit/537.36 (KHTML, like Gecko) Chrome/126.0.0.0 Safari/537.36" etag="7EFTzt0dQoR4KOpVZ2AR" version="24.6.5" type="github">
  <diagram name="Page-1" id="uicte08DCweA67_G2Nc7">
    <mxGraphModel dx="59" dy="1685" grid="1" gridSize="10" guides="1" tooltips="1" connect="1" arrows="1" fold="1" page="1" pageScale="1" pageWidth="850" pageHeight="1100" math="0" shadow="0">
      <root>
        <mxCell id="0" />
        <mxCell id="1" parent="0" />
        <mxCell id="P7pHUC3pd_s34ctohrT5-4" value="&lt;font style=&quot;font-size: 13px;&quot;&gt;Capitals AC score&lt;/font&gt;" style="text;html=1;strokeColor=#5982AB;fillColor=#EDEDED;align=center;verticalAlign=middle;whiteSpace=wrap;rounded=1;fontSize=12;fontColor=#4D4D4D;fontFamily=Helvetica;labelBorderColor=none;labelBackgroundColor=none;strokeWidth=2;" vertex="1" parent="1">
          <mxGeometry x="917" y="-630" width="150" height="35" as="geometry" />
        </mxCell>
        <mxCell id="P7pHUC3pd_s34ctohrT5-6" value="&lt;font style=&quot;font-size: 13px;&quot;&gt;&lt;font style=&quot;font-size: 13px;&quot;&gt;PCA&amp;nbsp;&lt;/font&gt;&lt;span style=&quot;&quot;&gt;AC score&lt;/span&gt;&lt;/font&gt;" style="text;html=1;strokeColor=#6D8764;fillColor=#EDEDED;align=center;verticalAlign=middle;whiteSpace=wrap;rounded=1;glass=0;shadow=0;fontColor=#4D4D4D;strokeWidth=2;" vertex="1" parent="1">
          <mxGeometry x="1290" y="-625" width="150" height="30" as="geometry" />
        </mxCell>
        <mxCell id="P7pHUC3pd_s34ctohrT5-8" value="&lt;font style=&quot;font-size: 13px;&quot;&gt;&lt;font style=&quot;font-size: 13px;&quot;&gt;FA&amp;nbsp;&lt;/font&gt;&lt;span style=&quot;&quot;&gt;AC score&lt;/span&gt;&lt;/font&gt;" style="text;html=1;strokeColor=#647687;fillColor=#EDEDED;align=center;verticalAlign=middle;whiteSpace=wrap;rounded=1;glass=0;shadow=0;fontColor=#4D4D4D;strokeWidth=2;" vertex="1" parent="1">
          <mxGeometry x="1480" y="-625" width="150" height="30" as="geometry" />
        </mxCell>
        <mxCell id="P7pHUC3pd_s34ctohrT5-35" value="&lt;span style=&quot;font-family: Helvetica; font-variant-ligatures: normal; font-variant-caps: normal; font-weight: 400; letter-spacing: normal; orphans: 2; text-align: center; text-indent: 0px; text-transform: none; widows: 2; word-spacing: 0px; -webkit-text-stroke-width: 0px; white-space: normal; background-color: rgb(251, 251, 251); text-decoration-thickness: initial; text-decoration-style: initial; text-decoration-color: initial; float: none; display: inline !important;&quot;&gt;&lt;font style=&quot;font-size: 11px;&quot;&gt;&lt;i&gt;Deductive Approach&lt;/i&gt;&lt;/font&gt;&lt;/span&gt;" style="edgeStyle=orthogonalEdgeStyle;rounded=0;orthogonalLoop=1;jettySize=auto;html=1;exitX=1;exitY=0.75;exitDx=0;exitDy=0;entryX=0.5;entryY=0;entryDx=0;entryDy=0;strokeColor=#76608A;fontColor=#808080;" edge="1" parent="1" source="P7pHUC3pd_s34ctohrT5-15" target="P7pHUC3pd_s34ctohrT5-2">
          <mxGeometry x="0.0017" relative="1" as="geometry">
            <mxPoint as="offset" />
          </mxGeometry>
        </mxCell>
        <mxCell id="P7pHUC3pd_s34ctohrT5-15" value="" style="rounded=1;whiteSpace=wrap;html=1;fontSize=13;labelBorderColor=default;labelBackgroundColor=none;fillColor=none;strokeColor=#76608A;rotation=90;fontColor=#333333;strokeWidth=1.1;" vertex="1" parent="1">
          <mxGeometry x="1122.28" y="-1193.97" width="267.5" height="767.59" as="geometry" />
        </mxCell>
        <mxCell id="P7pHUC3pd_s34ctohrT5-16" style="edgeStyle=orthogonalEdgeStyle;rounded=0;orthogonalLoop=1;jettySize=auto;html=1;exitX=0.995;exitY=0.832;exitDx=0;exitDy=0;strokeColor=#d6b656;exitPerimeter=0;fillColor=#fff2cc;entryX=0;entryY=0.75;entryDx=0;entryDy=0;" edge="1" parent="1" target="P7pHUC3pd_s34ctohrT5-29">
          <mxGeometry relative="1" as="geometry">
            <mxPoint x="1127.8" y="-717.1800000000001" as="sourcePoint" />
            <mxPoint x="1464" y="-725.1800000000001" as="targetPoint" />
            <Array as="points">
              <mxPoint x="1119" y="-716.9300000000001" />
              <mxPoint x="1119" y="-710.9300000000001" />
            </Array>
          </mxGeometry>
        </mxCell>
        <mxCell id="P7pHUC3pd_s34ctohrT5-17" value="&lt;div style=&quot;&quot;&gt;&lt;span style=&quot;background-color: initial;&quot;&gt;(+) Health providers per capita&lt;/span&gt;&lt;/div&gt;&lt;span style=&quot;background-color: initial;&quot;&gt;&lt;div style=&quot;&quot;&gt;&lt;span style=&quot;background-color: initial;&quot;&gt;(+) Population with health insurance&lt;/span&gt;&lt;/div&gt;&lt;/span&gt;&lt;span style=&quot;background-color: initial;&quot;&gt;&lt;div style=&quot;&quot;&gt;&lt;span style=&quot;background-color: initial;&quot;&gt;(-) Less than high school&lt;/span&gt;&lt;/div&gt;&lt;/span&gt;&lt;span style=&quot;background-color: initial;&quot;&gt;&lt;div style=&quot;&quot;&gt;&lt;span style=&quot;background-color: initial;&quot;&gt;(+) Graduate degree&lt;/span&gt;&lt;/div&gt;&lt;/span&gt;&lt;span style=&quot;background-color: initial;&quot;&gt;&lt;div style=&quot;&quot;&gt;&lt;span style=&quot;background-color: initial;&quot;&gt;(-) Families below poverty line&lt;/span&gt;&lt;/div&gt;&lt;/span&gt;&lt;span style=&quot;background-color: initial;&quot;&gt;&lt;div style=&quot;&quot;&gt;&lt;span style=&quot;background-color: initial;&quot;&gt;(+) Population with upper-tail income&lt;/span&gt;&lt;/div&gt;&lt;div style=&quot;&quot;&gt;(+) Proprietors income/net income&lt;span style=&quot;background-color: initial;&quot;&gt;&lt;br&gt;&lt;/span&gt;&lt;/div&gt;&lt;/span&gt;&lt;span style=&quot;background-color: initial;&quot;&gt;&lt;div style=&quot;&quot;&gt;&lt;span style=&quot;background-color: initial;&quot;&gt;(+) White (race)&lt;/span&gt;&lt;/div&gt;&lt;/span&gt;&lt;span style=&quot;background-color: initial;&quot;&gt;&lt;div style=&quot;&quot;&gt;&lt;span style=&quot;background-color: initial;&quot;&gt;(-) Hispanic population&lt;/span&gt;&lt;/div&gt;&lt;/span&gt;&lt;span style=&quot;background-color: initial;&quot;&gt;&lt;div style=&quot;&quot;&gt;&lt;span style=&quot;background-color: initial;&quot;&gt;(+) Male population&lt;/span&gt;&lt;/div&gt;&lt;/span&gt;&lt;span style=&quot;background-color: initial;&quot;&gt;&lt;div style=&quot;&quot;&gt;&lt;span style=&quot;background-color: initial;&quot;&gt;(-) Dependents (18 years and under)&lt;/span&gt;&lt;/div&gt;&lt;/span&gt;&lt;span style=&quot;background-color: initial;&quot;&gt;&lt;div style=&quot;&quot;&gt;&lt;span style=&quot;background-color: initial;&quot;&gt;(-) 65 years and older&lt;/span&gt;&lt;/div&gt;&lt;/span&gt;&lt;span style=&quot;background-color: initial;&quot;&gt;&lt;div style=&quot;&quot;&gt;&lt;span style=&quot;background-color: initial;&quot;&gt;(-) Population density&lt;/span&gt;&lt;/div&gt;&lt;/span&gt;&lt;span style=&quot;background-color: initial;&quot;&gt;&lt;div style=&quot;&quot;&gt;&lt;span style=&quot;background-color: initial;&quot;&gt;(+) Ratio between livestock and crops&amp;nbsp;&lt;/span&gt;&lt;/div&gt;&lt;/span&gt;" style="whiteSpace=wrap;html=1;rounded=1;fillColor=#fff2cc;strokeColor=#d6b656;align=left;spacingLeft=15;" vertex="1" parent="1">
          <mxGeometry x="890" y="-933.4300000000001" width="240" height="250" as="geometry" />
        </mxCell>
        <mxCell id="P7pHUC3pd_s34ctohrT5-18" style="edgeStyle=orthogonalEdgeStyle;rounded=0;orthogonalLoop=1;jettySize=auto;html=1;entryX=0;entryY=0.346;entryDx=0;entryDy=0;strokeColor=#6c8ebf;exitX=0.5;exitY=1;exitDx=0;exitDy=0;fillColor=#dae8fc;entryPerimeter=0;" edge="1" parent="1" source="P7pHUC3pd_s34ctohrT5-19" target="P7pHUC3pd_s34ctohrT5-29">
          <mxGeometry relative="1" as="geometry">
            <mxPoint x="1350" y="-701.44" as="targetPoint" />
            <mxPoint x="1265" y="-723.94" as="sourcePoint" />
            <Array as="points">
              <mxPoint x="1260" y="-723.9300000000001" />
              <mxPoint x="1430" y="-723.9300000000001" />
            </Array>
          </mxGeometry>
        </mxCell>
        <mxCell id="P7pHUC3pd_s34ctohrT5-19" value="&lt;div style=&quot;&quot;&gt;&lt;span style=&quot;background-color: initial;&quot;&gt;(+) Farmer net income&lt;/span&gt;&lt;/div&gt;&lt;span style=&quot;background-color: initial;&quot;&gt;&lt;div style=&quot;&quot;&gt;&lt;span style=&quot;background-color: initial;&quot;&gt;(-) Government payments&lt;/span&gt;&lt;/div&gt;&lt;/span&gt;&lt;span style=&quot;background-color: initial;&quot;&gt;&lt;div style=&quot;&quot;&gt;&lt;span style=&quot;background-color: initial;&quot;&gt;(+) Crops cash receipts&lt;/span&gt;&lt;/div&gt;&lt;/span&gt;&lt;span style=&quot;background-color: initial;&quot;&gt;&lt;div style=&quot;&quot;&gt;&lt;span style=&quot;background-color: initial;&quot;&gt;(+) Agriculture contribution to GDP&lt;/span&gt;&lt;/div&gt;&lt;/span&gt;&lt;span style=&quot;background-color: initial;&quot;&gt;&lt;div style=&quot;&quot;&gt;&lt;span style=&quot;background-color: initial;&quot;&gt;(-) Production expense&lt;/span&gt;&lt;/div&gt;&lt;/span&gt;&lt;span style=&quot;background-color: initial;&quot;&gt;&lt;div style=&quot;&quot;&gt;&lt;span style=&quot;background-color: initial;&quot;&gt;(+) Labor expense&lt;/span&gt;&lt;/div&gt;&lt;/span&gt;&lt;span style=&quot;background-color: initial;&quot;&gt;&lt;div style=&quot;&quot;&gt;&lt;span style=&quot;background-color: initial;&quot;&gt;(-) Population with Social Security&lt;/span&gt;&lt;/div&gt;&lt;/span&gt;&lt;span style=&quot;background-color: initial;&quot;&gt;&lt;div style=&quot;&quot;&gt;&lt;span style=&quot;background-color: initial;&quot;&gt;(-) Population with SNAP&lt;/span&gt;&lt;/div&gt;&lt;/span&gt;&lt;span style=&quot;background-color: initial;&quot;&gt;&lt;div style=&quot;&quot;&gt;&lt;span style=&quot;background-color: initial;&quot;&gt;(-) Population with disability&lt;/span&gt;&lt;/div&gt;&lt;/span&gt;&lt;span style=&quot;background-color: initial;&quot;&gt;&lt;div style=&quot;&quot;&gt;&lt;span style=&quot;background-color: initial;&quot;&gt;(+) Median income&lt;/span&gt;&lt;/div&gt;&lt;/span&gt;&lt;span style=&quot;background-color: initial;&quot;&gt;&lt;div style=&quot;&quot;&gt;&lt;span style=&quot;background-color: initial;&quot;&gt;(-) Unemployment&lt;/span&gt;&lt;/div&gt;&lt;/span&gt;" style="whiteSpace=wrap;html=1;rounded=1;fillColor=#dae8fc;strokeColor=#6c8ebf;align=left;spacingLeft=15;" vertex="1" parent="1">
          <mxGeometry x="1140" y="-933.4300000000001" width="240" height="200" as="geometry" />
        </mxCell>
        <mxCell id="P7pHUC3pd_s34ctohrT5-34" value="&lt;i style=&quot;forced-color-adjust: none; font-family: Helvetica; font-variant-ligatures: normal; font-variant-caps: normal; font-weight: 400; letter-spacing: normal; orphans: 2; text-align: center; text-indent: 0px; text-transform: none; widows: 2; word-spacing: 0px; -webkit-text-stroke-width: 0px; white-space: normal; background-color: rgb(251, 251, 251); text-decoration-thickness: initial; text-decoration-style: initial; text-decoration-color: initial;&quot;&gt;Hierarchical Approach&lt;/i&gt;" style="edgeStyle=orthogonalEdgeStyle;rounded=0;orthogonalLoop=1;jettySize=auto;html=1;exitX=0.25;exitY=1;exitDx=0;exitDy=0;strokeColor=#5982AB;fontColor=#808080;" edge="1" parent="1" source="P7pHUC3pd_s34ctohrT5-21" target="P7pHUC3pd_s34ctohrT5-4">
          <mxGeometry x="0.6239" relative="1" as="geometry">
            <Array as="points">
              <mxPoint x="860" y="-1003" />
              <mxPoint x="860" y="-650" />
              <mxPoint x="992" y="-650" />
            </Array>
            <mxPoint as="offset" />
          </mxGeometry>
        </mxCell>
        <mxCell id="P7pHUC3pd_s34ctohrT5-21" value="" style="rounded=1;whiteSpace=wrap;html=1;labelBackgroundColor=none;labelBorderColor=default;strokeColor=#5982AB;fontSize=13;fillColor=none;gradientColor=default;rotation=90;" vertex="1" parent="1">
          <mxGeometry x="1229.36" y="-1350" width="61.28" height="725" as="geometry" />
        </mxCell>
        <mxCell id="P7pHUC3pd_s34ctohrT5-22" style="edgeStyle=orthogonalEdgeStyle;rounded=0;orthogonalLoop=1;jettySize=auto;html=1;exitX=0.5;exitY=1;exitDx=0;exitDy=0;entryX=0.5;entryY=0;entryDx=0;entryDy=0;strokeColor=#9673a6;fillColor=#e1d5e7;" edge="1" parent="1" source="P7pHUC3pd_s34ctohrT5-23" target="P7pHUC3pd_s34ctohrT5-29">
          <mxGeometry relative="1" as="geometry" />
        </mxCell>
        <mxCell id="P7pHUC3pd_s34ctohrT5-23" value="&lt;div style=&quot;&quot;&gt;&lt;span style=&quot;background-color: initial;&quot;&gt;(+) Winter wheat yield&lt;/span&gt;&lt;/div&gt;&lt;span style=&quot;background-color: initial;&quot;&gt;&lt;div style=&quot;&quot;&gt;&lt;span style=&quot;background-color: initial;&quot;&gt;(+) Corn Grain yield&lt;/span&gt;&lt;/div&gt;&lt;/span&gt;&lt;span style=&quot;background-color: initial;&quot;&gt;&lt;div style=&quot;&quot;&gt;&lt;span style=&quot;background-color: initial;&quot;&gt;(+) Soybean yield&lt;/span&gt;&lt;/div&gt;&lt;/span&gt;&lt;span style=&quot;background-color: initial;&quot;&gt;&lt;div style=&quot;&quot;&gt;&lt;span style=&quot;background-color: initial;&quot;&gt;(-) Fertilizer used&lt;/span&gt;&lt;/div&gt;&lt;/span&gt;&lt;span style=&quot;background-color: initial;&quot;&gt;&lt;div style=&quot;&quot;&gt;&lt;span style=&quot;background-color: initial;&quot;&gt;(-) Acres planted from all crops&lt;/span&gt;&lt;/div&gt;&lt;/span&gt;&lt;span style=&quot;background-color: initial;&quot;&gt;&lt;div style=&quot;&quot;&gt;&lt;span style=&quot;background-color: initial;&quot;&gt;(+) Percent irrigation&lt;/span&gt;&lt;/div&gt;&lt;/span&gt;" style="html=1;rounded=1;fillColor=#e1d5e7;strokeColor=#9673a6;align=left;horizontal=1;whiteSpace=wrap;spacingLeft=15;" vertex="1" parent="1">
          <mxGeometry x="1390" y="-933.4300000000001" width="240" height="130" as="geometry" />
        </mxCell>
        <mxCell id="P7pHUC3pd_s34ctohrT5-24" value="&lt;b&gt;Human&amp;nbsp;&lt;/b&gt;&lt;div&gt;&lt;b&gt;Capital&lt;/b&gt;&lt;/div&gt;" style="whiteSpace=wrap;html=1;fillColor=#fff2cc;strokeColor=#d6b656;rounded=1;" vertex="1" parent="1">
          <mxGeometry x="950" y="-1003.9300000000001" width="120" height="36.5" as="geometry" />
        </mxCell>
        <mxCell id="P7pHUC3pd_s34ctohrT5-25" value="&lt;b&gt;&lt;font style=&quot;font-size: 13px;&quot;&gt;Financial&lt;/font&gt;&lt;/b&gt;&lt;div&gt;&lt;b&gt;&lt;font style=&quot;font-size: 13px;&quot;&gt;Capital&lt;/font&gt;&lt;/b&gt;&lt;/div&gt;" style="whiteSpace=wrap;html=1;fillColor=#dae8fc;strokeColor=#6c8ebf;rounded=1;" vertex="1" parent="1">
          <mxGeometry x="1200" y="-1003.9300000000001" width="120" height="36.5" as="geometry" />
        </mxCell>
        <mxCell id="P7pHUC3pd_s34ctohrT5-26" value="&lt;b&gt;Biophysical Capital&lt;/b&gt;" style="whiteSpace=wrap;html=1;fillColor=#e1d5e7;strokeColor=#9673a6;rounded=1;fontSize=13;" vertex="1" parent="1">
          <mxGeometry x="1450" y="-1003.9300000000001" width="120" height="36.5" as="geometry" />
        </mxCell>
        <mxCell id="P7pHUC3pd_s34ctohrT5-36" value="&lt;i&gt;Inductive Approaches&lt;/i&gt;" style="edgeStyle=orthogonalEdgeStyle;rounded=0;orthogonalLoop=1;jettySize=auto;html=1;exitX=0.25;exitY=1;exitDx=0;exitDy=0;fontColor=#808080;strokeColor=#6D8764;" edge="1" parent="1" source="P7pHUC3pd_s34ctohrT5-29" target="P7pHUC3pd_s34ctohrT5-6">
          <mxGeometry x="-0.4404" y="22" relative="1" as="geometry">
            <Array as="points">
              <mxPoint x="1453" y="-664" />
              <mxPoint x="1390" y="-664" />
            </Array>
            <mxPoint x="17" y="-8" as="offset" />
          </mxGeometry>
        </mxCell>
        <mxCell id="P7pHUC3pd_s34ctohrT5-29" value="&lt;font color=&quot;#808080&quot;&gt;31 Variables&lt;/font&gt;" style="text;html=1;strokeColor=#808080;fillColor=none;align=center;verticalAlign=middle;whiteSpace=wrap;rounded=0;glass=0;sketch=1;curveFitting=1;jiggle=2;shadow=0;" vertex="1" parent="1">
          <mxGeometry x="1430" y="-733.4300000000001" width="90" height="30" as="geometry" />
        </mxCell>
        <mxCell id="P7pHUC3pd_s34ctohrT5-30" value="&lt;font style=&quot;font-size: 10px;&quot; color=&quot;#808080&quot;&gt;Census-Tract 2010-2018&lt;/font&gt;" style="text;html=1;strokeColor=none;fillColor=none;align=center;verticalAlign=middle;whiteSpace=wrap;rounded=0;glass=0;sketch=1;curveFitting=1;jiggle=2;shadow=0;fontStyle=2;fontSize=10;" vertex="1" parent="1">
          <mxGeometry x="1190.52" y="-703.43" width="138.97" height="30" as="geometry" />
        </mxCell>
        <mxCell id="P7pHUC3pd_s34ctohrT5-2" value="&lt;font style=&quot;font-size: 13px;&quot;&gt;Variables&amp;nbsp;AC score&lt;/font&gt;" style="text;html=1;strokeColor=#76608A;fillColor=#EDEDED;align=center;verticalAlign=middle;whiteSpace=wrap;rounded=1;fontSize=12;fontColor=#4D4D4D;strokeWidth=2;labelBorderColor=none;labelBackgroundColor=none;" vertex="1" parent="1">
          <mxGeometry x="1102.28" y="-625" width="150" height="30" as="geometry" />
        </mxCell>
        <mxCell id="P7pHUC3pd_s34ctohrT5-37" style="edgeStyle=orthogonalEdgeStyle;rounded=0;orthogonalLoop=1;jettySize=auto;html=1;exitX=0.75;exitY=1;exitDx=0;exitDy=0;entryX=0.5;entryY=0;entryDx=0;entryDy=0;strokeColor=#647687;" edge="1" parent="1" source="P7pHUC3pd_s34ctohrT5-29" target="P7pHUC3pd_s34ctohrT5-8">
          <mxGeometry relative="1" as="geometry">
            <mxPoint x="1485" y="-693" as="sourcePoint" />
            <mxPoint x="1375" y="-615" as="targetPoint" />
          </mxGeometry>
        </mxCell>
      </root>
    </mxGraphModel>
  </diagram>
</mxfile>
